<?xml version="1.0" standalone="no"?>
<!DOCTYPE svg PUBLIC "-//W3C//DTD SVG 20010904//EN"
 "http://www.w3.org/TR/2001/REC-SVG-20010904/DTD/svg10.dtd">
<svg version="1.0" xmlns="http://www.w3.org/2000/svg"
 width="225.000000pt" height="225.000000pt" viewBox="0 0 225.000000 225.000000"
 preserveAspectRatio="xMidYMid meet">
<metadata>
Created by potrace 1.16, written by Peter Selinger 2001-2019
</metadata>
<g transform="translate(0.000000,225.000000) scale(0.100000,-0.100000)"
fill="#000000" stroke="none">
<path d="M0 1125 l0 -1125 1125 0 1125 0 0 1125 0 1125 -1125 0 -1125 0 0
-1125z m1617 789 c39 -32 76 -91 320 -517 144 -250 151 -272 110 -359 -41 -89
-376 -661 -405 -692 -53 -56 -55 -56 -512 -56 -451 0 -461 1 -507 51 -19 22
-284 473 -385 656 -68 125 -68 126 95 410 265 462 287 495 337 521 l45 23 432
-3 431 -3 39 -31z"/>
<path d="M742 1879 c-34 -7 -68 -29 -87 -56 -39 -56 -383 -662 -389 -686 -4
-18 0 -42 12 -71 32 -72 50 -76 331 -76 184 0 250 3 275 14 36 15 112 103 211
244 33 48 79 100 103 117 l44 30 296 6 c163 4 298 7 300 8 9 4 -11 41 -114
220 -115 199 -155 250 -197 252 -110 4 -763 3 -785 -2z"/>
<path d="M1525 1360 c-132 -3 -217 -9 -230 -17 -36 -21 -72 -67 -158 -203 -58
-92 -96 -141 -119 -155 -31 -19 -56 -20 -345 -25 -171 -3 -314 -8 -318 -12
-10 -10 43 -95 63 -99 9 -2 142 -2 296 1 l278 5 49 55 c27 30 85 105 128 166
85 118 130 157 201 173 25 6 161 11 303 11 141 0 257 3 257 6 0 4 -10 23 -21
44 -27 47 -55 61 -122 58 -29 -1 -146 -5 -262 -8z"/>
<path d="M1431 1210 c-52 -12 -82 -39 -136 -123 -198 -306 -141 -277 -547
-277 -263 0 -308 -2 -308 -15 0 -22 216 -387 245 -415 l27 -25 418 0 c403 0
420 1 445 20 30 22 402 660 417 714 12 43 -4 106 -32 121 -22 12 -478 12 -529
0z"/>
</g>
</svg>
